<svg xmlns="http://www.w3.org/2000/svg" xmlns:xlink="http://www.w3.org/1999/xlink" viewBox="0 0 500 500"><defs><clipPath id="freepik--clip-path--inject-1--inject-110"><path d="M268,148.66s-2.94,10.92-2.31,12,2.1.63,1.26,2.73-2.73,6.1-2.31,7.78,2.73,2.94,2.73,2.94,1.05,7.56,2.1,9,6.72.63,6.72.63l.42,5.67,16.81-1-.63-10.08-.84-31.09Z" style="fill:#fff;stroke:#2e353a;stroke-miterlimit:10"></path></clipPath></defs><!--Setup--><g id="freepik--background-simple--inject-1--inject-110"><path d="M77,100s-21,12-24,42,30,72,35,110-35,47-19,95,100,59,145,40,66-67,133-67,115-31,111-100-19-90-73-130S143,32,77,100Z" style="fill:#BA68C8"></path><path d="M77,100s-21,12-24,42,30,72,35,110-35,47-19,95,100,59,145,40,66-67,133-67,115-31,111-100-19-90-73-130S143,32,77,100Z" style="fill:#fff;opacity:0.7000000000000001"></path></g><g id="freepik--Window--inject-1--inject-110"><rect x="82.5" y="78.52" width="329.88" height="238.62" rx="9.78" style="fill:#BA68C8;stroke:#2e353a;stroke-miterlimit:10;stroke-width:1.50103px"></rect><rect x="88.67" y="101.44" width="317.53" height="201.07" style="fill:#fff;stroke:#2e353a;stroke-miterlimit:10;stroke-width:1.50103px"></rect><line x1="105.28" y1="259.96" x2="199.75" y2="259.96" style="fill:none;stroke:#2e353a;stroke-linecap:round;stroke-linejoin:round"></line><line x1="120.92" y1="269.34" x2="199.75" y2="269.34" style="fill:none;stroke:#2e353a;stroke-linecap:round;stroke-linejoin:round"></line><line x1="105.28" y1="269.34" x2="112.78" y2="269.34" style="fill:none;stroke:#2e353a;stroke-linecap:round;stroke-linejoin:round"></line><line x1="105.28" y1="278.72" x2="199.75" y2="278.72" style="fill:none;stroke:#2e353a;stroke-linecap:round;stroke-linejoin:round"></line><line x1="192.86" y1="288.11" x2="199.75" y2="288.11" style="fill:none;stroke:#2e353a;stroke-linecap:round;stroke-linejoin:round"></line><line x1="105.28" y1="288.11" x2="184.73" y2="288.11" style="fill:none;stroke:#2e353a;stroke-linecap:round;stroke-linejoin:round"></line><rect x="102.22" y="117.88" width="228.33" height="73.43" rx="5.69" style="fill:#2e353a"></rect><path d="M324.87,118.38a5.18,5.18,0,0,1,5.18,5.19v62.05a5.18,5.18,0,0,1-5.18,5.19h-217a5.19,5.19,0,0,1-5.19-5.19V123.57a5.19,5.19,0,0,1,5.19-5.19h217m0-1h-217a6.2,6.2,0,0,0-6.19,6.19v62.05a6.2,6.2,0,0,0,6.19,6.19h217a6.19,6.19,0,0,0,6.18-6.19V123.57a6.19,6.19,0,0,0-6.18-6.19Z" style="fill:#2e353a"></path><path d="M284.42,118.38a12.08,12.08,0,0,1-17.45,0h-5.22l.14.24L260,120.54a1.89,1.89,0,0,0,0,2.66l2.49,2.49a1.87,1.87,0,0,0,2.66,0l1.92-1.92a16,16,0,0,0,5,2.08v2.72a1.88,1.88,0,0,0,1.88,1.88h3.52a1.88,1.88,0,0,0,1.88-1.88v-2.72a16,16,0,0,0,5-2.08l1.92,1.92a1.87,1.87,0,0,0,2.66,0l2.49-2.49a1.89,1.89,0,0,0,0-2.66l-1.92-1.92.14-.24Z" style="fill:#BA68C8"></path><path d="M195.36,189.88h-2.72a16,16,0,0,0-2.08-5l1.92-1.92a1.87,1.87,0,0,0,0-2.66L190,177.79a1.88,1.88,0,0,0-2.67,0l-1.92,1.92a16.06,16.06,0,0,0-5-2.08v-2.72a1.89,1.89,0,0,0-1.89-1.88H175a1.89,1.89,0,0,0-1.89,1.88v2.72a16.06,16.06,0,0,0-5,2.08l-1.92-1.92a1.87,1.87,0,0,0-2.66,0L161,180.28a1.87,1.87,0,0,0,0,2.66l1.92,1.92a16,16,0,0,0-2.08,5h-2.72a1.85,1.85,0,0,0-1.61.93h8.39a12.13,12.13,0,0,1,23.65,0H197A1.85,1.85,0,0,0,195.36,189.88Z" style="fill:#BA68C8"></path><path d="M105.51,168.27H109a1.89,1.89,0,0,0,1.89-1.89v-2.71a16.06,16.06,0,0,0,5-2.08l1.92,1.92a1.87,1.87,0,0,0,2.66,0L123,161a1.87,1.87,0,0,0,0-2.66l-1.92-1.92a16,16,0,0,0,2.08-5h2.72a1.88,1.88,0,0,0,1.88-1.88V146a1.88,1.88,0,0,0-1.88-1.88h-2.72a16.21,16.21,0,0,0-2.08-5L123,137.2a1.87,1.87,0,0,0,0-2.66l-2.49-2.49a1.89,1.89,0,0,0-2.66,0L115.93,134a16.28,16.28,0,0,0-5-2.07v-2.72A1.89,1.89,0,0,0,109,127.3h-3.52a1.88,1.88,0,0,0-1.88,1.88v2.72c-.31.07-.61.16-.91.25v4.39a11.64,11.64,0,0,1,3.32-.83A12.14,12.14,0,1,1,102.72,159v4.4c.3.09.6.18.91.25v2.71A1.89,1.89,0,0,0,105.51,168.27Z" style="fill:#BA68C8"></path><rect x="188.1" y="84.73" width="157.76" height="9.66" style="fill:#fff;stroke:#2e353a;stroke-miterlimit:10;stroke-width:1.50103px"></rect><polyline points="96.31 83.19 91.76 87.57 96.48 92.63" style="fill:none;stroke:#2e353a;stroke-linecap:round;stroke-linejoin:round;stroke-width:1.50103px"></polyline><line x1="91.76" y1="87.57" x2="101.87" y2="87.57" style="fill:none;stroke:#2e353a;stroke-linecap:round;stroke-linejoin:round;stroke-width:1.50103px"></line><polyline points="122.1 83.19 126.66 87.57 121.93 92.63" style="fill:none;stroke:#2e353a;stroke-linecap:round;stroke-linejoin:round;stroke-width:1.50103px"></polyline><line x1="126.65" y1="87.57" x2="116.54" y2="87.57" style="fill:none;stroke:#2e353a;stroke-linecap:round;stroke-linejoin:round;stroke-width:1.50103px"></line><path d="M148.39,87a5,5,0,0,0-4.64-3.62,4.55,4.55,0,1,0,2.88,8.07" style="fill:none;stroke:#2e353a;stroke-linecap:round;stroke-linejoin:round;stroke-width:1.50103px"></path><polyline points="145.32 87.49 148.86 87.49 148.86 83.28" style="fill:none;stroke:#2e353a;stroke-linecap:round;stroke-linejoin:round;stroke-width:1.50103px"></polyline><polygon points="172.5 86 168.3 82.6 164.3 86 164.3 93.4 172.5 93.4 172.5 86" style="fill:none;stroke:#2e353a;stroke-linecap:round;stroke-linejoin:round;stroke-width:1.50103px"></polygon><rect x="166.7" y="88" width="3.2" height="5.13" style="fill:#2e353a"></rect><line x1="164.3" y1="86" x2="161.9" y2="88.2" style="fill:none;stroke:#2e353a;stroke-linecap:round;stroke-linejoin:round;stroke-width:1.50103px"></line><line x1="172.5" y1="86" x2="174.76" y2="88.01" style="fill:none;stroke:#2e353a;stroke-linecap:round;stroke-linejoin:round;stroke-width:1.50103px"></line><line x1="389.48" y1="86.5" x2="402.13" y2="86.5" style="fill:none;stroke:#2e353a;stroke-linecap:round;stroke-linejoin:round;stroke-width:1.50103px"></line><line x1="389.48" y1="89.35" x2="402.13" y2="89.35" style="fill:none;stroke:#2e353a;stroke-linecap:round;stroke-linejoin:round;stroke-width:1.50103px"></line><line x1="389.48" y1="92.21" x2="402.13" y2="92.21" style="fill:none;stroke:#2e353a;stroke-linecap:round;stroke-linejoin:round;stroke-width:1.50103px"></line><line x1="389.48" y1="95.06" x2="402.13" y2="95.06" style="fill:none;stroke:#2e353a;stroke-linecap:round;stroke-linejoin:round;stroke-width:1.50103px"></line><path d="M412.38,143.81h-206a7.61,7.61,0,0,0-7.61,7.61v57.21a7.61,7.61,0,0,0,7.61,7.61h206Z" style="fill:#BA68C8;mix-blend-mode:multiply"></path></g><g id="freepik--Plants--inject-1--inject-110"><path d="M399.68,287.84c-.35-13,.66-35.29-10.78-44.45-10-8-17.86,2.87-20.68,11.67-6.84,21.37-3.62,44.95-3.61,67,0,.33,0,.67,0,1-.54,16.22-2.49,33.79-.72,50,0,0-1.74-16.22-14.49-9.27s6.38,43.47,6.38,43.47-15.07-11-22-1.74,8.69,19.7,8.69,19.7-14.49-4.05-14.49,0,4.64,7.54,18,9.27h71.86s11.59-6.37,9.27-13.32-14.49-2.9-14.49-2.9,18.55-22.6,17.39-32.46S405,387.51,405,387.51s18.54-46.94,15.07-67.8c-2.74-16.43-15.5-5.19-22.44,1.13A189.76,189.76,0,0,0,399.68,287.84Z" style="fill:#BA68C8"></path><path d="M399.68,287.84c-.35-13,.66-35.29-10.78-44.45-10-8-17.86,2.87-20.68,11.67-6.84,21.37-3.62,44.95-3.61,67,0,.33,0,.67,0,1-.54,16.22-2.49,33.79-.72,50,0,0-1.74-16.22-14.49-9.27s6.38,43.47,6.38,43.47-15.07-11-22-1.74,8.69,19.7,8.69,19.7-14.49-4.05-14.49,0,4.64,7.54,18,9.27h71.86s11.59-6.37,9.27-13.32-14.49-2.9-14.49-2.9,18.55-22.6,17.39-32.46S405,387.51,405,387.51s18.54-46.94,15.07-67.8c-2.74-16.43-15.5-5.19-22.44,1.13A189.76,189.76,0,0,0,399.68,287.84Z" style="fill:#fff;opacity:0.5"></path><line x1="376.63" y1="433.87" x2="381.85" y2="274.51" style="fill:none;stroke:#fff;stroke-linecap:round;stroke-linejoin:round;stroke-width:1.7269500000000002px"></line><line x1="379.53" y1="367.23" x2="406.77" y2="341.73" style="fill:none;stroke:#fff;stroke-linecap:round;stroke-linejoin:round;stroke-width:1.7269500000000002px"></line><line x1="392.28" y1="355.64" x2="398.07" y2="339.41" style="fill:none;stroke:#fff;stroke-linecap:round;stroke-linejoin:round;stroke-width:1.7269500000000002px"></line><line x1="356.93" y1="386.93" x2="377.79" y2="409.53" style="fill:none;stroke:#fff;stroke-linecap:round;stroke-linejoin:round;stroke-width:1.7269500000000002px"></line><line x1="412.56" y1="399.68" x2="377.79" y2="417.65" style="fill:none;stroke:#fff;stroke-linecap:round;stroke-linejoin:round;stroke-width:1.7269500000000002px"></line><line x1="394.02" y1="410.11" x2="406.77" y2="409.53" style="fill:none;stroke:#fff;stroke-linecap:round;stroke-linejoin:round;stroke-width:1.7269500000000002px"></line></g></svg>